
<svg xmlns="http://www.w3.org/2000/svg" xmlns:xlink="http://www.w3.org/1999/xlink" width="1245" height="752" viewBox="0 0 1245 752"><defs><style>.a,.d{fill:#fff;}.a{stroke:#707070;}.b{fill:url(#a);}.c{clip-path:url(#b);}.e{opacity:0.5;}.f{fill:url(#f);}.g{fill:url(#g);}.h{fill:url(#i);}.i{clip-path:url(#n);}.j{fill:#e9d8c4;opacity:0.2;}.k{filter:url(#d);}</style><linearGradient id="a" y1="0.5" x2="1" y2="0.5" gradientUnits="objectBoundingBox"><stop offset="0" stop-color="#f26451"/><stop offset="1" stop-color="#ffbc65"/></linearGradient><clipPath id="b"><rect class="a" width="1245" height="752"/></clipPath><filter id="d" x="-9" y="-6" width="1263" height="697.032" filterUnits="userSpaceOnUse"><feOffset dy="3" input="SourceAlpha"/><feGaussianBlur stdDeviation="3" result="e"/><feFlood flood-color="#340000" flood-opacity="0.251"/><feComposite operator="in" in2="e"/><feComposite in="SourceGraphic"/></filter><linearGradient id="f" y1="0.5" x2="1" y2="0.5" gradientUnits="objectBoundingBox"><stop offset="0" stop-color="#ffbc65" stop-opacity="0.302"/><stop offset="1" stop-color="#f26451"/></linearGradient><linearGradient id="g" x1="0.5" y1="1" x2="0.5" gradientUnits="objectBoundingBox"><stop offset="0" stop-color="#ffbc65" stop-opacity="0.302"/><stop offset="1" stop-color="#f26451" stop-opacity="0.6"/></linearGradient><linearGradient id="i" x1="-1.06" y1="1" x2="-1.06" y2="0" xlink:href="#g"/><clipPath id="n"><path class="b" d="M1245,577V-1H0V630C609,717,896.7,677.71,1245,577Z"/></clipPath></defs><g class="c"><g transform="translate(0 1)"><rect class="d" width="1244.51" height="404.854" transform="translate(0.698 345.655)"/><g class="k" transform="matrix(1, 0, 0, 1, 0, -1)"><path class="b" d="M1245,577V-1H0V630C609,717,896.7,677.71,1245,577Z" transform="translate(0 1)"/></g><g class="e" transform="translate(582 98.281)"><path class="f" d="M1114.951-451.339h751s-91.237,12.065-136.477,67.862S1614.56-330.7,1546.248-309.584c-124.412,38.455-79.926-22.62-189.258-27.144-108.757-4.5-98.25-58.591-142.51-61.829C1152.652-403.081,1124-407.605,1114.951-451.339Z" transform="translate(-1114.951 759.731)"/><rect class="g" width="205.846" height="185.488" transform="translate(96.514 122.905)"/><path class="g" d="M1534.392-447.723H1415.257V-756.116l119.135,51.273Z" transform="translate(-1111.389 756.116)"/><path class="h" d="M1652.968-448.483H1772.1V-692.031l-119.135,40.492Z" transform="translate(-1108.569 756.876)"/><rect class="g" width="121.396" height="173.424" transform="translate(423.003 134.969)"/><rect class="g" width="55.797" height="141.755" transform="translate(663.534 166.637)"/><rect class="g" width="55.797" height="120.642" transform="translate(41.471 187.75)"/><rect class="g" width="55.797" height="49.011" transform="translate(141.001 73.894)"/></g><g class="i"><path class="j" d="M693.837,702.119C226.16,619.8,125.644,381.233,195.447,245.9,251.839,136.572,197.97,63.673,0,118.408V784.433H945.009C897.7,753.473,819.428,724.224,693.837,702.119Z" transform="translate(0 -30.433)"/><path class="j" d="M1,754.566H199.591C206.219,574.517-1.792,602.432,54.05,240.939,69.276,142.374,100.369,69.656,59.448.874H1Z" transform="translate(-0.302 -0.566)"/></g></g></g></svg>