
<svg xmlns="http://www.w3.org/2000/svg" width="30" height="30" viewBox="0 0 30 30"><defs><style>.a{fill:#fff;}</style></defs><g transform="translate(568 -31)"><path class="a" d="M-552.8,61A15.119,15.119,0,0,1-568,46a15.119,15.119,0,0,1,15.2-15,15.274,15.274,0,0,1,8.5,2.563,1.389,1.389,0,0,1,.381,1.944,1.431,1.431,0,0,1-1.97.377A12.419,12.419,0,0,0-552.8,33.8,12.3,12.3,0,0,0-565.162,46,12.3,12.3,0,0,0-552.8,58.2a12.485,12.485,0,0,0,4.037-.665,12.252,12.252,0,0,1,6.936-.68,9.189,9.189,0,0,1-.216-3.453,1.414,1.414,0,0,1,1.605-1.188,1.4,1.4,0,0,1,1.2,1.584,8.644,8.644,0,0,0,1.044,4.707,1.386,1.386,0,0,1-.219,1.675,1.433,1.433,0,0,1-1.693.249,8.993,8.993,0,0,0-7.534-.324c-.041.019-.089.039-.132.054A15.359,15.359,0,0,1-552.8,61Z"/><g transform="translate(-557.629 38.609)"><path class="a" d="M-550.411,45.668a1.467,1.467,0,0,1,1.479-1.479h4.764a4.852,4.852,0,0,1,3.515,1.191,3.081,3.081,0,0,1,.922,2.286V47.7a3.127,3.127,0,0,1-1.767,2.9c1.555.6,2.516,1.5,2.516,3.3v.038c0,2.459-2,3.688-5.033,3.688h-4.917a1.467,1.467,0,0,1-1.479-1.479Zm5.608,3.957c1.306,0,2.132-.423,2.132-1.422v-.039c0-.883-.692-1.383-1.94-1.383h-2.92v2.843Zm.788,5.416c1.306,0,2.094-.461,2.094-1.46v-.039c0-.9-.672-1.46-2.189-1.46h-3.419v2.958Z" transform="translate(550.411 -44.189)"/></g></g></svg>