
<svg xmlns="http://www.w3.org/2000/svg" width="47.027" height="30" viewBox="0 0 47.027 30"><defs><style>.a{fill:#fdfdfd;fill-rule:evenodd;}</style></defs><g transform="translate(-234 120)"><path class="a" d="M39.812-265.479a39.872,39.872,0,0,0,.387-5.08,2.256,2.256,0,0,0-.811-1.925,26.9,26.9,0,0,0-9.452-4.819,42.876,42.876,0,0,0-12.046-1.7,42.879,42.879,0,0,0-12.046,1.7,26.893,26.893,0,0,0-9.451,4.819l0,0a2.246,2.246,0,0,0-.816,1.744,39.67,39.67,0,0,0,.389,5.258,2.177,2.177,0,0,0-1.516,2.653l.78,2.912a2.178,2.178,0,0,0,2.342,1.6,51.1,51.1,0,0,0,2.3,6.074l.006,0a2.245,2.245,0,0,0,1.433,1.239,48.272,48.272,0,0,0,7.634,1.5,76.232,76.232,0,0,0,8.938.5,76.235,76.235,0,0,0,8.939-.5,48.509,48.509,0,0,0,7.466-1.451,2.256,2.256,0,0,0,1.607-1.285,51.257,51.257,0,0,0,2.3-6.075,2.178,2.178,0,0,0,2.347-1.594l.78-2.912A2.177,2.177,0,0,0,39.812-265.479Zm-5.137,2.926c-1.68,7.2-1.388,7.727-8.376,8.558a71.792,71.792,0,0,1-8.408.463,71.8,71.8,0,0,1-8.408-.463c-6.987-.831-6.7-1.361-8.375-8.558C-.6-269.867-.474-270.7,7.134-272.975a38.286,38.286,0,0,1,10.757-1.51,38.287,38.287,0,0,1,10.757,1.51C36.256-270.7,36.383-269.867,34.675-262.552Z" transform="translate(239.62 159.008)"/><path class="a" d="M16.138-262.907a5.327,5.327,0,0,1,5.327,5.327,5.326,5.326,0,0,1-5.327,5.327,5.327,5.327,0,0,1-5.327-5.327,5.327,5.327,0,0,1,5.327-5.327" transform="translate(233.664 153.172)"/><path class="a" d="M40.33-262.907a5.327,5.327,0,0,1,5.327,5.327,5.327,5.327,0,0,1-5.327,5.327A5.326,5.326,0,0,1,35-257.58a5.327,5.327,0,0,1,5.327-5.327" transform="translate(224.895 153.172)"/></g></svg>