
<svg xmlns="http://www.w3.org/2000/svg" width="94.054" height="60" viewBox="0 0 94.054 60"><defs><style>.a{fill:#fdfdfd;fill-rule:evenodd;}</style></defs><g transform="translate(-234 120)"><path class="a" d="M85.244-251.95a79.745,79.745,0,0,0,.774-10.16A4.511,4.511,0,0,0,84.4-265.96a53.792,53.792,0,0,0-18.9-9.638,85.751,85.751,0,0,0-24.093-3.41,85.757,85.757,0,0,0-24.093,3.41,53.786,53.786,0,0,0-18.9,9.638l.008.009a4.492,4.492,0,0,0-1.632,3.489,79.339,79.339,0,0,0,.778,10.515,4.354,4.354,0,0,0-3.032,5.307l1.561,5.825a4.356,4.356,0,0,0,4.683,3.19,102.192,102.192,0,0,0,4.606,12.149l.013-.005A4.49,4.49,0,0,0,8.257-223a96.545,96.545,0,0,0,15.268,3,152.468,152.468,0,0,0,17.877,1,152.474,152.474,0,0,0,17.878-1,97.018,97.018,0,0,0,14.932-2.9,4.513,4.513,0,0,0,3.214-2.569,102.513,102.513,0,0,0,4.606-12.15,4.356,4.356,0,0,0,4.695-3.189l1.561-5.825A4.354,4.354,0,0,0,85.244-251.95ZM74.97-246.1c-3.36,14.394-2.776,15.454-16.752,17.117a143.585,143.585,0,0,1-16.817.927,143.6,143.6,0,0,1-16.817-.927C10.609-230.643,11.193-231.7,7.833-246.1c-3.417-14.629-3.162-16.292,12.055-20.845A76.571,76.571,0,0,1,41.4-269.963a76.574,76.574,0,0,1,21.514,3.021C78.132-262.389,78.386-260.726,74.97-246.1Z" transform="translate(239.62 159.008)"/><path class="a" d="M20.843-262.907a10.032,10.032,0,0,1,10.032,10.033,10.032,10.032,0,0,1-10.032,10.032,10.032,10.032,0,0,1-10.032-10.032,10.033,10.033,0,0,1,10.032-10.033" transform="translate(244.497 164.096)"/><path class="a" d="M45.035-262.907a10.033,10.033,0,0,1,10.032,10.033,10.032,10.032,0,0,1-10.032,10.032A10.032,10.032,0,0,1,35-252.874a10.032,10.032,0,0,1,10.032-10.033" transform="translate(251.679 164.096)"/></g></svg>